<?xml version="1.0" standalone="no"?>
<!DOCTYPE svg PUBLIC "-//W3C//DTD SVG 20010904//EN"
 "http://www.w3.org/TR/2001/REC-SVG-20010904/DTD/svg10.dtd">
<svg version="1.0" xmlns="http://www.w3.org/2000/svg"
 width="181.000000pt" height="180.000000pt" viewBox="0 0 181.000000 180.000000"
 preserveAspectRatio="xMidYMid meet">

<g transform="translate(0.000000,180.000000) scale(0.100000,-0.100000)"
fill="#000000" stroke="none">
<path d="M67 1380 c-25 -29 -24 -127 1 -127 9 1 29 0 45 -1 l27 -2 0 -340 0
-340 -32 -2 c-18 0 -39 -1 -45 -1 -9 1 -13 -21 -13 -76 l0 -76 400 3 400 2 0
108 0 108 -75 0 -75 -1 0 -31 c0 -18 -6 -34 -13 -37 -7 -2 -100 -3 -207 -2
l-195 3 -3 161 -2 161 160 0 161 0 -3 73 -3 72 -158 3 -158 3 3 107 3 107 205
-1 205 -1 5 -34 c5 -33 7 -35 48 -38 23 -1 56 0 72 4 l30 7 0 104 0 104 -383
0 c-371 0 -383 -1 -400 -20z"/>
<path d="M880 1331 c0 -67 1 -71 23 -71 12 0 32 -3 45 -6 l22 -6 0 -342 0
-341 -43 0 -42 -1 -3 -72 -3 -72 308 0 c346 0 390 6 478 64 160 106 152 369
-15 464 l-50 29 31 22 c17 13 40 44 51 69 38 85 7 223 -59 270 -73 51 -108 56
-435 60 l-308 3 0 -70z m605 -97 c86 -41 65 -166 -33 -194 -20 -5 -103 -10
-184 -10 l-148 0 0 115 0 116 167 -6 c118 -4 175 -10 198 -21z m-3 -365 c105
-22 155 -79 145 -165 -6 -59 -30 -92 -85 -117 -43 -20 -64 -22 -234 -22 l-188
0 0 158 0 157 155 0 c84 0 178 -5 207 -11z"/>
</g>
</svg>
